Love for All and Sharing is the first step to solving all the problems of humanity.

Websites I want to share.

    
http://www.shareintl.org/

    
http://www.lightmiddleway.com


Thank you very much

No credit for me...credit to EVERYONE for sharing
 
http://thepiratebay.org/user/raymondhome/

PLOT
The story follows the adventures of Aang, a young successor to a long line of Avatars, who must put his childhood ways aside and stop the Fire Nation from enslaving the Water, Earth and Air nations.

Language:English
Source:Kingdom.Thanks!
Encoder: Tony2
........................................
Duration : 1h 34mn
Overall bit rate : 1 340 Kbps
........................................
Video
Format : xvid
Codec ID : xvid
Duration : 1h 34mn
Bit rate : 1 199 Kbps
Width : 730 pixels
Height : 304 pixels
Display aspect ratio : 2.40:1
Frame rate : 29.970 fps
Resolution : 24 bits
Bits/(Pixel*Frame) : 0.180
Stream size : 812 MiB (89%)
.......................................
Audio
ID : 1
Format : MPEG Audio
Format version : Version 1
Format profile : Layer 3
Format settings, Mode : Joint stereo / MS Stereo
Codec ID : 55
Codec ID/Hint : MP3
Duration : 1h 34mn
Bit rate mode : Constant
Bit rate : 128 Kbps
Channel(s) : 2 channels
Sampling rate : 48.0 KHz
Resolution : 16 bits
Stream size : 86.7 MiB (10%)
Alignment : Aligned on interleaves
Interleave, duration : 24 ms (0.72 video frame)
Interleave, preload duration : 24 ms

credit FEEL-FREE & pitic BIG BIG BIG TIME & to all the people who made it possible for us to share this...especially EVERYONE involve in the production of the movie...IF YOU LIKE IT...BUY IT :)

*****help what we can with others in need...the world is ONE big family*****